# Tiled2Unity generated file. Do not modify by hand.
# Wavefront file for 'Unknow_game_easy_mesh_0001.obj'

# Vertices (Count = 16)
v -576 -576 0
v -640 -576 0
v -640 -512 0
v -576 -512 0
v -640 -576 0
v -704 -576 0
v -704 -512 0
v -640 -512 0
v -576 -640 0
v -640 -640 0
v -640 -576 0
v -576 -576 0
v -640 -640 0
v -704 -640 0
v -704 -576 0
v -640 -576 0

# Texture cooridinates (Count = 9)
vt 0.5825748 0.8571429
vt 0.6657997 0.8571429
vt 0.6657997 1
vt 0.5825748 1
vt 0.7490247 0.8571429
vt 0.7490247 1
vt 0.5825748 0.7142857
vt 0.6657997 0.7142857
vt 0.7490247 0.7142857

# Normal
vn 0 0 -1

# Mesh description
g Unknow_game_easy_mesh_0001

# Faces
f 1/1/1 2/2/1 3/3/1 4/4/1
f 5/2/1 6/5/1 7/6/1 8/3/1
f 9/7/1 10/8/1 11/2/1 12/1/1
f 13/8/1 14/9/1 15/5/1 16/2/1

