# Tiled2Unity generated file. Do not modify by hand.
# Wavefront file for 'Unknow_game_easy_mesh_0004.obj'

# Vertices (Count = 8)
v -128 -576 0
v -192 -576 0
v -192 -512 0
v -128 -512 0
v -128 -640 0
v -192 -640 0
v -192 -576 0
v -128 -576 0

# Texture cooridinates (Count = 6)
vt 0.8322497 0.8571429
vt 0.9154747 0.8571429
vt 0.9154747 1
vt 0.8322497 1
vt 0.8322497 0.7142857
vt 0.9154747 0.7142857

# Normal
vn 0 0 -1

# Mesh description
g Unknow_game_easy_mesh_0004

# Faces
f 1/1/1 2/2/1 3/3/1 4/4/1
f 5/5/1 6/6/1 7/2/1 8/1/1

