# Tiled2Unity generated file. Do not modify by hand.
# Wavefront file for 'Unknow_game_easy_mesh_0005.obj'

# Vertices (Count = 224)
v -576 -640 0
v -640 -640 0
v -640 -576 0
v -576 -576 0
v -640 -640 0
v -704 -640 0
v -704 -576 0
v -640 -576 0
v -704 -640 0
v -768 -640 0
v -768 -576 0
v -704 -576 0
v -768 -640 0
v -832 -640 0
v -832 -576 0
v -768 -576 0
v -832 -640 0
v -896 -640 0
v -896 -576 0
v -832 -576 0
v -896 -640 0
v -960 -640 0
v -960 -576 0
v -896 -576 0
v -576 -704 0
v -640 -704 0
v -640 -640 0
v -576 -640 0
v -640 -704 0
v -704 -704 0
v -704 -640 0
v -640 -640 0
v -704 -704 0
v -768 -704 0
v -768 -640 0
v -704 -640 0
v -768 -704 0
v -832 -704 0
v -832 -640 0
v -768 -640 0
v -832 -704 0
v -896 -704 0
v -896 -640 0
v -832 -640 0
v -896 -704 0
v -960 -704 0
v -960 -640 0
v -896 -640 0
v -576 -768 0
v -640 -768 0
v -640 -704 0
v -576 -704 0
v -640 -768 0
v -704 -768 0
v -704 -704 0
v -640 -704 0
v -704 -768 0
v -768 -768 0
v -768 -704 0
v -704 -704 0
v -768 -768 0
v -832 -768 0
v -832 -704 0
v -768 -704 0
v -832 -768 0
v -896 -768 0
v -896 -704 0
v -832 -704 0
v -896 -768 0
v -960 -768 0
v -960 -704 0
v -896 -704 0
v -448 -832 0
v -512 -832 0
v -512 -768 0
v -448 -768 0
v -512 -832 0
v -576 -832 0
v -576 -768 0
v -512 -768 0
v -576 -832 0
v -640 -832 0
v -640 -768 0
v -576 -768 0
v -640 -832 0
v -704 -832 0
v -704 -768 0
v -640 -768 0
v -704 -832 0
v -768 -832 0
v -768 -768 0
v -704 -768 0
v -768 -832 0
v -832 -832 0
v -832 -768 0
v -768 -768 0
v -832 -832 0
v -896 -832 0
v -896 -768 0
v -832 -768 0
v -448 -896 0
v -512 -896 0
v -512 -832 0
v -448 -832 0
v -512 -896 0
v -576 -896 0
v -576 -832 0
v -512 -832 0
v -576 -896 0
v -640 -896 0
v -640 -832 0
v -576 -832 0
v 0 -960 0
v -64 -960 0
v -64 -896 0
v 0 -896 0
v -64 -960 0
v -128 -960 0
v -128 -896 0
v -64 -896 0
v -128 -960 0
v -192 -960 0
v -192 -896 0
v -128 -896 0
v -192 -960 0
v -256 -960 0
v -256 -896 0
v -192 -896 0
v -256 -960 0
v -320 -960 0
v -320 -896 0
v -256 -896 0
v -320 -960 0
v -384 -960 0
v -384 -896 0
v -320 -896 0
v -448 -960 0
v -512 -960 0
v -512 -896 0
v -448 -896 0
v -512 -960 0
v -576 -960 0
v -576 -896 0
v -512 -896 0
v -1472 -960 0
v -1536 -960 0
v -1536 -896 0
v -1472 -896 0
v -1536 -960 0
v -1600 -960 0
v -1600 -896 0
v -1536 -896 0
v -1600 -960 0
v -1664 -960 0
v -1664 -896 0
v -1600 -896 0
v -1664 -960 0
v -1728 -960 0
v -1728 -896 0
v -1664 -896 0
v -1728 -960 0
v -1792 -960 0
v -1792 -896 0
v -1728 -896 0
v -1792 -960 0
v -1856 -960 0
v -1856 -896 0
v -1792 -896 0
v -1856 -960 0
v -1920 -960 0
v -1920 -896 0
v -1856 -896 0
v 0 -1024 0
v -64 -1024 0
v -64 -960 0
v 0 -960 0
v -64 -1024 0
v -128 -1024 0
v -128 -960 0
v -64 -960 0
v -128 -1024 0
v -192 -1024 0
v -192 -960 0
v -128 -960 0
v -192 -1024 0
v -256 -1024 0
v -256 -960 0
v -192 -960 0
v -256 -1024 0
v -320 -1024 0
v -320 -960 0
v -256 -960 0
v -320 -1024 0
v -384 -1024 0
v -384 -960 0
v -320 -960 0
v -1472 -1024 0
v -1536 -1024 0
v -1536 -960 0
v -1472 -960 0
v -1536 -1024 0
v -1600 -1024 0
v -1600 -960 0
v -1536 -960 0
v -1600 -1024 0
v -1664 -1024 0
v -1664 -960 0
v -1600 -960 0
v -1664 -1024 0
v -1728 -1024 0
v -1728 -960 0
v -1664 -960 0
v -1728 -1024 0
v -1792 -1024 0
v -1792 -960 0
v -1728 -960 0
v -1792 -1024 0
v -1856 -1024 0
v -1856 -960 0
v -1792 -960 0
v -1856 -1024 0
v -1920 -1024 0
v -1920 -960 0
v -1856 -960 0

# Texture cooridinates (Count = 46)
vt 0 0.8571429
vt 0.08322497 0.8571429
vt 0.08322497 1
vt 0 1
vt 0.1664499 0.8571429
vt 0.1664499 1
vt 0.2496749 0.8571429
vt 0.2496749 1
vt 0.3328999 0.8571429
vt 0.4161249 0.8571429
vt 0.4161249 1
vt 0.3328999 1
vt 0.4993498 0.8571429
vt 0.4993498 1
vt 0.5825748 0.8571429
vt 0.5825748 1
vt 0 0.7142857
vt 0.08322497 0.7142857
vt 0.1664499 0.7142857
vt 0.2496749 0.7142857
vt 0.3328999 0.7142857
vt 0.4161249 0.7142857
vt 0.4993498 0.7142857
vt 0.5825748 0.7142857
vt 0 0.2857143
vt 0.08322497 0.2857143
vt 0.08322497 0.4285714
vt 0 0.4285714
vt 0.1664499 0.2857143
vt 0.1664499 0.4285714
vt 0.2496749 0.2857143
vt 0.2496749 0.4285714
vt 0.3328999 0.2857143
vt 0.4161249 0.2857143
vt 0.4161249 0.4285714
vt 0.3328999 0.4285714
vt 0.4993498 0.2857143
vt 0.4993498 0.4285714
vt 0.5825748 0.2857143
vt 0.5825748 0.4285714
vt 0.08322497 0.1428571
vt 0.1664499 0.1428571
vt 0.2496749 0.1428571
vt 0.3328999 0.1428571
vt 0.4161249 0.1428571
vt 0.4993498 0.1428571

# Normal
vn 0 0 -1

# Mesh description
g Unknow_game_easy_mesh_0005

# Faces
f 1/1/1 2/2/1 3/3/1 4/4/1
f 5/2/1 6/5/1 7/6/1 8/3/1
f 9/5/1 10/7/1 11/8/1 12/6/1
f 13/9/1 14/10/1 15/11/1 16/12/1
f 17/10/1 18/13/1 19/14/1 20/11/1
f 21/13/1 22/15/1 23/16/1 24/14/1
f 25/17/1 26/18/1 27/2/1 28/1/1
f 29/18/1 30/19/1 31/5/1 32/2/1
f 33/19/1 34/20/1 35/7/1 36/5/1
f 37/21/1 38/22/1 39/10/1 40/9/1
f 41/22/1 42/23/1 43/13/1 44/10/1
f 45/23/1 46/24/1 47/15/1 48/13/1
f 49/25/1 50/26/1 51/27/1 52/28/1
f 53/26/1 54/29/1 55/30/1 56/27/1
f 57/29/1 58/31/1 59/32/1 60/30/1
f 61/33/1 62/34/1 63/35/1 64/36/1
f 65/34/1 66/37/1 67/38/1 68/35/1
f 69/37/1 70/39/1 71/40/1 72/38/1
f 73/2/1 74/5/1 75/6/1 76/3/1
f 77/10/1 78/13/1 79/14/1 80/11/1
f 81/13/1 82/15/1 83/16/1 84/14/1
f 85/41/1 86/42/1 87/29/1 88/26/1
f 89/42/1 90/43/1 91/31/1 92/29/1
f 93/44/1 94/45/1 95/34/1 96/33/1
f 97/45/1 98/46/1 99/37/1 100/34/1
f 101/18/1 102/19/1 103/5/1 104/2/1
f 105/22/1 106/23/1 107/13/1 108/10/1
f 109/23/1 110/24/1 111/15/1 112/13/1
f 113/9/1 114/10/1 115/11/1 116/12/1
f 117/5/1 118/7/1 119/8/1 120/6/1
f 121/7/1 122/9/1 123/12/1 124/8/1
f 125/9/1 126/10/1 127/11/1 128/12/1
f 129/10/1 130/13/1 131/14/1 132/11/1
f 133/13/1 134/15/1 135/16/1 136/14/1
f 137/44/1 138/45/1 139/34/1 140/33/1
f 141/44/1 142/45/1 143/34/1 144/33/1
f 145/1/1 146/2/1 147/3/1 148/4/1
f 149/2/1 150/5/1 151/6/1 152/3/1
f 153/5/1 154/7/1 155/8/1 156/6/1
f 157/7/1 158/9/1 159/12/1 160/8/1
f 161/7/1 162/9/1 163/12/1 164/8/1
f 165/7/1 166/9/1 167/12/1 168/8/1
f 169/9/1 170/10/1 171/11/1 172/12/1
f 173/33/1 174/34/1 175/35/1 176/36/1
f 177/29/1 178/31/1 179/32/1 180/30/1
f 181/33/1 182/34/1 183/35/1 184/36/1
f 185/29/1 186/31/1 187/32/1 188/30/1
f 189/22/1 190/23/1 191/13/1 192/10/1
f 193/23/1 194/24/1 195/15/1 196/13/1
f 197/17/1 198/18/1 199/2/1 200/1/1
f 201/18/1 202/19/1 203/5/1 204/2/1
f 205/19/1 206/20/1 207/7/1 208/5/1
f 209/20/1 210/21/1 211/9/1 212/7/1
f 213/20/1 214/21/1 215/9/1 216/7/1
f 217/20/1 218/21/1 219/9/1 220/7/1
f 221/21/1 222/22/1 223/10/1 224/9/1

