# Tiled2Unity generated file. Do not modify by hand.
# Wavefront file for 'Glow_easy_mesh_0004.obj'

# Vertices (Count = 32)
v -128 -256 0
v -192 -256 0
v -192 -192 0
v -128 -192 0
v -192 -256 0
v -256 -256 0
v -256 -192 0
v -192 -192 0
v -256 -256 0
v -320 -256 0
v -320 -192 0
v -256 -192 0
v -320 -256 0
v -384 -256 0
v -384 -192 0
v -320 -192 0
v -128 -320 0
v -192 -320 0
v -192 -256 0
v -128 -256 0
v -192 -320 0
v -256 -320 0
v -256 -256 0
v -192 -256 0
v -256 -320 0
v -320 -320 0
v -320 -256 0
v -256 -256 0
v -320 -320 0
v -384 -320 0
v -384 -256 0
v -320 -256 0

# Texture cooridinates (Count = 15)
vt 0.5825748 0.8571429
vt 0.6657997 0.8571429
vt 0.6657997 1
vt 0.5825748 1
vt 0.7490247 0.8571429
vt 0.7490247 1
vt 0.8322497 0.8571429
vt 0.8322497 1
vt 0.9154747 0.8571429
vt 0.9154747 1
vt 0.5825748 0.7142857
vt 0.6657997 0.7142857
vt 0.7490247 0.7142857
vt 0.8322497 0.7142857
vt 0.9154747 0.7142857

# Normal
vn 0 0 -1

# Mesh description
g Glow_easy_mesh_0004

# Faces
f 1/1/1 2/2/1 3/3/1 4/4/1
f 5/2/1 6/5/1 7/6/1 8/3/1
f 9/5/1 10/7/1 11/8/1 12/6/1
f 13/7/1 14/9/1 15/10/1 16/8/1
f 17/11/1 18/12/1 19/2/1 20/1/1
f 21/12/1 22/13/1 23/5/1 24/2/1
f 25/13/1 26/14/1 27/7/1 28/5/1
f 29/14/1 30/15/1 31/9/1 32/7/1

