# Tiled2Unity generated file. Do not modify by hand.
# Wavefront file for 'Glow_easy_mesh_0001.obj'

# Vertices (Count = 220)
v -768 -640 0
v -832 -640 0
v -832 -576 0
v -768 -576 0
v -832 -640 0
v -896 -640 0
v -896 -576 0
v -832 -576 0
v -896 -640 0
v -960 -640 0
v -960 -576 0
v -896 -576 0
v -960 -640 0
v -1024 -640 0
v -1024 -576 0
v -960 -576 0
v -1024 -640 0
v -1088 -640 0
v -1088 -576 0
v -1024 -576 0
v -1088 -640 0
v -1152 -640 0
v -1152 -576 0
v -1088 -576 0
v -1152 -640 0
v -1216 -640 0
v -1216 -576 0
v -1152 -576 0
v -768 -704 0
v -832 -704 0
v -832 -640 0
v -768 -640 0
v -832 -704 0
v -896 -704 0
v -896 -640 0
v -832 -640 0
v -896 -704 0
v -960 -704 0
v -960 -640 0
v -896 -640 0
v -960 -704 0
v -1024 -704 0
v -1024 -640 0
v -960 -640 0
v -1024 -704 0
v -1088 -704 0
v -1088 -640 0
v -1024 -640 0
v -1088 -704 0
v -1152 -704 0
v -1152 -640 0
v -1088 -640 0
v -1152 -704 0
v -1216 -704 0
v -1216 -640 0
v -1152 -640 0
v 0 -896 0
v -64 -896 0
v -64 -832 0
v 0 -832 0
v -64 -896 0
v -128 -896 0
v -128 -832 0
v -64 -832 0
v -128 -896 0
v -192 -896 0
v -192 -832 0
v -128 -832 0
v -192 -896 0
v -256 -896 0
v -256 -832 0
v -192 -832 0
v -256 -896 0
v -320 -896 0
v -320 -832 0
v -256 -832 0
v -320 -896 0
v -384 -896 0
v -384 -832 0
v -320 -832 0
v -1344 -896 0
v -1408 -896 0
v -1408 -832 0
v -1344 -832 0
v -1408 -896 0
v -1472 -896 0
v -1472 -832 0
v -1408 -832 0
v -1472 -896 0
v -1536 -896 0
v -1536 -832 0
v -1472 -832 0
v -1536 -896 0
v -1600 -896 0
v -1600 -832 0
v -1536 -832 0
v -1600 -896 0
v -1664 -896 0
v -1664 -832 0
v -1600 -832 0
v -1664 -896 0
v -1728 -896 0
v -1728 -832 0
v -1664 -832 0
v -1728 -896 0
v -1792 -896 0
v -1792 -832 0
v -1728 -832 0
v -1792 -896 0
v -1856 -896 0
v -1856 -832 0
v -1792 -832 0
v -1856 -896 0
v -1920 -896 0
v -1920 -832 0
v -1856 -832 0
v 0 -960 0
v -64 -960 0
v -64 -896 0
v 0 -896 0
v -64 -960 0
v -128 -960 0
v -128 -896 0
v -64 -896 0
v -128 -960 0
v -192 -960 0
v -192 -896 0
v -128 -896 0
v -192 -960 0
v -256 -960 0
v -256 -896 0
v -192 -896 0
v -1344 -960 0
v -1408 -960 0
v -1408 -896 0
v -1344 -896 0
v -1408 -960 0
v -1472 -960 0
v -1472 -896 0
v -1408 -896 0
v -1472 -960 0
v -1536 -960 0
v -1536 -896 0
v -1472 -896 0
v -1536 -960 0
v -1600 -960 0
v -1600 -896 0
v -1536 -896 0
v -1600 -960 0
v -1664 -960 0
v -1664 -896 0
v -1600 -896 0
v -1664 -960 0
v -1728 -960 0
v -1728 -896 0
v -1664 -896 0
v -1728 -960 0
v -1792 -960 0
v -1792 -896 0
v -1728 -896 0
v -1792 -960 0
v -1856 -960 0
v -1856 -896 0
v -1792 -896 0
v -1856 -960 0
v -1920 -960 0
v -1920 -896 0
v -1856 -896 0
v 0 -1024 0
v -64 -1024 0
v -64 -960 0
v 0 -960 0
v -64 -1024 0
v -128 -1024 0
v -128 -960 0
v -64 -960 0
v -128 -1024 0
v -192 -1024 0
v -192 -960 0
v -128 -960 0
v -192 -1024 0
v -256 -1024 0
v -256 -960 0
v -192 -960 0
v -1344 -1024 0
v -1408 -1024 0
v -1408 -960 0
v -1344 -960 0
v -1408 -1024 0
v -1472 -1024 0
v -1472 -960 0
v -1408 -960 0
v -1472 -1024 0
v -1536 -1024 0
v -1536 -960 0
v -1472 -960 0
v -1536 -1024 0
v -1600 -1024 0
v -1600 -960 0
v -1536 -960 0
v -1600 -1024 0
v -1664 -1024 0
v -1664 -960 0
v -1600 -960 0
v -1664 -1024 0
v -1728 -1024 0
v -1728 -960 0
v -1664 -960 0
v -1728 -1024 0
v -1792 -1024 0
v -1792 -960 0
v -1728 -960 0
v -1792 -1024 0
v -1856 -1024 0
v -1856 -960 0
v -1792 -960 0
v -1856 -1024 0
v -1920 -1024 0
v -1920 -960 0
v -1856 -960 0

# Texture cooridinates (Count = 34)
vt 0 0.8571429
vt 0.08322497 0.8571429
vt 0.08322497 1
vt 0 1
vt 0.1664499 0.8571429
vt 0.1664499 1
vt 0.2496749 0.8571429
vt 0.2496749 1
vt 0.3328999 0.8571429
vt 0.3328999 1
vt 0.4161249 0.8571429
vt 0.4161249 1
vt 0.4993498 0.8571429
vt 0.4993498 1
vt 0.5825748 0.8571429
vt 0.5825748 1
vt 0 0.7142857
vt 0.08322497 0.7142857
vt 0.1664499 0.7142857
vt 0.2496749 0.7142857
vt 0.3328999 0.7142857
vt 0.4161249 0.7142857
vt 0.4993498 0.7142857
vt 0.5825748 0.7142857
vt 0.2496749 0.5714285
vt 0.3328999 0.5714285
vt 0.4161249 0.5714285
vt 0 0.5714285
vt 0.08322497 0.5714285
vt 0.1664499 0.5714285
vt 0.3328999 0.4285714
vt 0.4161249 0.4285714
vt 0.1664499 0.4285714
vt 0.2496749 0.4285714

# Normal
vn 0 0 -1

# Mesh description
g Glow_easy_mesh_0001

# Faces
f 1/1/1 2/2/1 3/3/1 4/4/1
f 5/2/1 6/5/1 7/6/1 8/3/1
f 9/5/1 10/7/1 11/8/1 12/6/1
f 13/7/1 14/9/1 15/10/1 16/8/1
f 17/9/1 18/11/1 19/12/1 20/10/1
f 21/11/1 22/13/1 23/14/1 24/12/1
f 25/13/1 26/15/1 27/16/1 28/14/1
f 29/17/1 30/18/1 31/2/1 32/1/1
f 33/18/1 34/19/1 35/5/1 36/2/1
f 37/19/1 38/20/1 39/7/1 40/5/1
f 41/20/1 42/21/1 43/9/1 44/7/1
f 45/21/1 46/22/1 47/11/1 48/9/1
f 49/22/1 50/23/1 51/13/1 52/11/1
f 53/23/1 54/24/1 55/15/1 56/13/1
f 57/7/1 58/9/1 59/10/1 60/8/1
f 61/7/1 62/9/1 63/10/1 64/8/1
f 65/7/1 66/9/1 67/10/1 68/8/1
f 69/9/1 70/11/1 71/12/1 72/10/1
f 73/11/1 74/13/1 75/14/1 76/12/1
f 77/13/1 78/15/1 79/16/1 80/14/1
f 81/1/1 82/2/1 83/3/1 84/4/1
f 85/2/1 86/5/1 87/6/1 88/3/1
f 89/5/1 90/7/1 91/8/1 92/6/1
f 93/7/1 94/9/1 95/10/1 96/8/1
f 97/9/1 98/11/1 99/12/1 100/10/1
f 101/5/1 102/7/1 103/8/1 104/6/1
f 105/7/1 106/9/1 107/10/1 108/8/1
f 109/9/1 110/11/1 111/12/1 112/10/1
f 113/5/1 114/7/1 115/8/1 116/6/1
f 117/20/1 118/21/1 119/9/1 120/7/1
f 121/20/1 122/21/1 123/9/1 124/7/1
f 125/20/1 126/21/1 127/9/1 128/7/1
f 129/21/1 130/22/1 131/11/1 132/9/1
f 133/17/1 134/18/1 135/2/1 136/1/1
f 137/18/1 138/19/1 139/5/1 140/2/1
f 141/19/1 142/20/1 143/7/1 144/5/1
f 145/20/1 146/21/1 147/9/1 148/7/1
f 149/21/1 150/22/1 151/11/1 152/9/1
f 153/19/1 154/20/1 155/7/1 156/5/1
f 157/20/1 158/21/1 159/9/1 160/7/1
f 161/21/1 162/22/1 163/11/1 164/9/1
f 165/19/1 166/20/1 167/7/1 168/5/1
f 169/25/1 170/26/1 171/21/1 172/20/1
f 173/25/1 174/26/1 175/21/1 176/20/1
f 177/25/1 178/26/1 179/21/1 180/20/1
f 181/26/1 182/27/1 183/22/1 184/21/1
f 185/28/1 186/29/1 187/18/1 188/17/1
f 189/29/1 190/30/1 191/19/1 192/18/1
f 193/30/1 194/25/1 195/20/1 196/19/1
f 197/25/1 198/26/1 199/21/1 200/20/1
f 201/31/1 202/32/1 203/27/1 204/26/1
f 205/33/1 206/34/1 207/25/1 208/30/1
f 209/25/1 210/26/1 211/21/1 212/20/1
f 213/31/1 214/32/1 215/27/1 216/26/1
f 217/33/1 218/34/1 219/25/1 220/30/1

