# Tiled2Unity generated file. Do not modify by hand.
# Wavefront file for 'Glow_easy_v2_mesh_0012.obj'

# Vertices (Count = 48)
v -256 -256 0
v -320 -256 0
v -320 -192 0
v -256 -192 0
v -256 -320 0
v -320 -320 0
v -320 -256 0
v -256 -256 0
v -128 -384 0
v -192 -384 0
v -192 -320 0
v -128 -320 0
v -192 -384 0
v -256 -384 0
v -256 -320 0
v -192 -320 0
v -128 -448 0
v -192 -448 0
v -192 -384 0
v -128 -384 0
v -192 -448 0
v -256 -448 0
v -256 -384 0
v -192 -384 0
v -128 -512 0
v -192 -512 0
v -192 -448 0
v -128 -448 0
v -192 -512 0
v -256 -512 0
v -256 -448 0
v -192 -448 0
v -128 -576 0
v -192 -576 0
v -192 -512 0
v -128 -512 0
v -192 -576 0
v -256 -576 0
v -256 -512 0
v -192 -512 0
v -128 -640 0
v -192 -640 0
v -192 -576 0
v -128 -576 0
v -192 -640 0
v -256 -640 0
v -256 -576 0
v -192 -576 0

# Texture cooridinates (Count = 12)
vt 0.7490247 0.8571429
vt 0.8322497 0.8571429
vt 0.8322497 1
vt 0.7490247 1
vt 0.7490247 0.7142857
vt 0.8322497 0.7142857
vt 0.9154747 0.7142857
vt 0.9154747 0.8571429
vt 0.9154747 1
vt 0.9986996 0.7142857
vt 0.9986996 0.8571429
vt 0.9986996 1

# Normal
vn 0 0 -1

# Mesh description
g Glow_easy_v2_mesh_0012

# Faces
f 1/1/1 2/2/1 3/3/1 4/4/1
f 5/5/1 6/6/1 7/2/1 8/1/1
f 9/6/1 10/2/1 11/1/1 12/5/1
f 13/2/1 14/3/1 15/4/1 16/1/1
f 17/7/1 18/8/1 19/2/1 20/6/1
f 21/8/1 22/9/1 23/3/1 24/2/1
f 25/7/1 26/8/1 27/2/1 28/6/1
f 29/8/1 30/9/1 31/3/1 32/2/1
f 33/7/1 34/8/1 35/2/1 36/6/1
f 37/8/1 38/9/1 39/3/1 40/2/1
f 41/10/1 42/11/1 43/8/1 44/7/1
f 45/11/1 46/12/1 47/9/1 48/8/1

